<svg width="162" height="57" viewBox="0 0 162 57" fill="none" xmlns="http://www.w3.org/2000/svg">
<rect x="0.5" y="0.5" width="161" height="56" rx="9.5" fill="white" fill-opacity="0.2" stroke="white"/>
<path d="M46 19.833V36.1663" stroke="#B5B0ED" stroke-width="2" stroke-linecap="round" stroke-linejoin="round"/>
<path d="M37.8333 28H54.1666" stroke="#B5B0ED" stroke-width="2" stroke-linecap="round" stroke-linejoin="round"/>
<path d="M74.356 34V23.218H70.216V21.31H80.818V23.218H76.678V34H74.356ZM84.8168 34.144C83.9168 34.144 83.1248 33.958 82.4408 33.586C81.7688 33.214 81.2468 32.68 80.8748 31.984C80.5028 31.288 80.3168 30.478 80.3168 29.554C80.3168 28.63 80.5028 27.826 80.8748 27.142C81.2468 26.446 81.7688 25.912 82.4408 25.54C83.1248 25.168 83.9168 24.982 84.8168 24.982C85.7168 24.982 86.5028 25.168 87.1748 25.54C87.8588 25.912 88.3808 26.446 88.7408 27.142C89.1128 27.826 89.2988 28.63 89.2988 29.554C89.2988 30.478 89.1128 31.288 88.7408 31.984C88.3808 32.68 87.8588 33.214 87.1748 33.586C86.5028 33.958 85.7168 34.144 84.8168 34.144ZM84.7988 32.398C85.5308 32.398 86.0888 32.158 86.4728 31.678C86.8568 31.198 87.0488 30.49 87.0488 29.554C87.0488 28.63 86.8568 27.928 86.4728 27.448C86.0888 26.956 85.5368 26.71 84.8168 26.71C84.0968 26.71 83.5388 26.956 83.1428 27.448C82.7588 27.928 82.5668 28.63 82.5668 29.554C82.5668 30.49 82.7588 31.198 83.1428 31.678C83.5268 32.158 84.0788 32.398 84.7988 32.398ZM96.2143 24.982C96.9703 24.982 97.6423 25.174 98.2303 25.558C98.8303 25.942 99.2923 26.488 99.6163 27.196C99.9523 27.892 100.12 28.696 100.12 29.608C100.12 30.52 99.9523 31.318 99.6163 32.002C99.2923 32.686 98.8363 33.214 98.2483 33.586C97.6603 33.958 96.9823 34.144 96.2143 34.144C95.5903 34.144 95.0323 34.012 94.5403 33.748C94.0483 33.484 93.6703 33.118 93.4063 32.65V37.24H91.1563V25.198H93.3703V26.53C93.6343 26.038 94.0123 25.66 94.5043 25.396C95.0083 25.12 95.5783 24.982 96.2143 24.982ZM95.6203 32.398C96.3283 32.398 96.8803 32.158 97.2763 31.678C97.6723 31.186 97.8703 30.496 97.8703 29.608C97.8703 28.696 97.6723 27.988 97.2763 27.484C96.8803 26.98 96.3283 26.728 95.6203 26.728C94.9003 26.728 94.3423 26.974 93.9463 27.466C93.5623 27.958 93.3703 28.66 93.3703 29.572C93.3703 30.472 93.5623 31.168 93.9463 31.66C94.3423 32.152 94.9003 32.398 95.6203 32.398ZM112.29 34.162C110.55 34.162 109.23 33.712 108.33 32.812C107.43 31.912 106.98 30.598 106.98 28.87V21.31H109.248V28.996C109.248 30.088 109.506 30.916 110.022 31.48C110.538 32.032 111.294 32.308 112.29 32.308C113.274 32.308 114.024 32.026 114.54 31.462C115.056 30.898 115.314 30.076 115.314 28.996V21.31H117.582V28.87C117.582 30.586 117.132 31.9 116.232 32.812C115.332 33.712 114.018 34.162 112.29 34.162ZM125.113 24.982C125.869 24.982 126.541 25.174 127.129 25.558C127.729 25.942 128.191 26.488 128.515 27.196C128.851 27.892 129.019 28.696 129.019 29.608C129.019 30.52 128.851 31.318 128.515 32.002C128.191 32.686 127.735 33.214 127.147 33.586C126.559 33.958 125.881 34.144 125.113 34.144C124.489 34.144 123.931 34.012 123.439 33.748C122.947 33.484 122.569 33.118 122.305 32.65V37.24H120.055V25.198H122.269V26.53C122.533 26.038 122.911 25.66 123.403 25.396C123.907 25.12 124.477 24.982 125.113 24.982ZM124.519 32.398C125.227 32.398 125.779 32.158 126.175 31.678C126.571 31.186 126.769 30.496 126.769 29.608C126.769 28.696 126.571 27.988 126.175 27.484C125.779 26.98 125.227 26.728 124.519 26.728C123.799 26.728 123.241 26.974 122.845 27.466C122.461 27.958 122.269 28.66 122.269 29.572C122.269 30.472 122.461 31.168 122.845 31.66C123.241 32.152 123.799 32.398 124.519 32.398Z" fill="white"/>
</svg>
