<svg width="162" height="57" viewBox="0 0 162 57" fill="none" xmlns="http://www.w3.org/2000/svg">
<rect x="0.5" y="0.5" width="161" height="56" rx="9.5" fill="white" fill-opacity="0.2" stroke="white"/>
<path d="M42 36.1663V19.833" stroke="#6379F4" stroke-width="2" stroke-linecap="round" stroke-linejoin="round"/>
<path d="M33.8333 27.9997L42 19.833L50.1666 27.9997" stroke="#6379F4" stroke-width="2" stroke-linecap="round" stroke-linejoin="round"/>
<path d="M70.356 34V23.218H66.216V21.31H76.818V23.218H72.678V34H70.356ZM82.5988 26.854L81.2848 26.98C79.7968 27.136 79.0528 27.892 79.0528 29.248V34H76.8028V25.198H78.9448V26.746C79.4008 25.69 80.3428 25.114 81.7708 25.018L82.4548 24.964L82.5988 26.854ZM87.4383 24.982C88.6743 24.982 89.5923 25.282 90.1923 25.882C90.7923 26.482 91.0923 27.406 91.0923 28.654V34H88.9503V32.65C88.7463 33.118 88.4223 33.484 87.9783 33.748C87.5463 34.012 87.0423 34.144 86.4663 34.144C85.8783 34.144 85.3443 34.024 84.8643 33.784C84.3843 33.544 84.0063 33.214 83.7303 32.794C83.4543 32.374 83.3163 31.906 83.3163 31.39C83.3163 30.742 83.4783 30.232 83.8023 29.86C84.1383 29.488 84.6783 29.218 85.4223 29.05C86.1663 28.882 87.1923 28.798 88.5003 28.798H88.9503V28.384C88.9503 27.784 88.8183 27.352 88.5543 27.088C88.3023 26.824 87.8763 26.692 87.2763 26.692C86.8083 26.692 86.3163 26.776 85.8003 26.944C85.2963 27.1 84.7983 27.322 84.3063 27.61L83.6763 26.062C84.1683 25.75 84.7623 25.492 85.4583 25.288C86.1543 25.084 86.8143 24.982 87.4383 24.982ZM86.9163 32.524C87.5163 32.524 88.0023 32.326 88.3743 31.93C88.7583 31.522 88.9503 31 88.9503 30.364V29.986H88.6263C87.8223 29.986 87.1983 30.022 86.7543 30.094C86.3103 30.166 85.9923 30.292 85.8003 30.472C85.6083 30.652 85.5123 30.898 85.5123 31.21C85.5123 31.594 85.6443 31.912 85.9083 32.164C86.1723 32.404 86.5083 32.524 86.9163 32.524ZM98.491 24.982C99.547 24.982 100.333 25.282 100.849 25.882C101.365 26.482 101.623 27.388 101.623 28.6V34H99.373V28.726C99.373 28.042 99.241 27.544 98.977 27.232C98.725 26.92 98.323 26.764 97.771 26.764C97.123 26.764 96.601 26.968 96.205 27.376C95.821 27.784 95.629 28.33 95.629 29.014V34H93.379V25.198H95.575V26.512C95.875 26.02 96.277 25.642 96.781 25.378C97.285 25.114 97.855 24.982 98.491 24.982ZM107.148 34.144C106.368 34.144 105.648 34.048 104.988 33.856C104.34 33.664 103.788 33.388 103.332 33.028L103.962 31.462C104.898 32.146 105.972 32.488 107.184 32.488C107.7 32.488 108.09 32.404 108.354 32.236C108.63 32.068 108.768 31.828 108.768 31.516C108.768 31.252 108.672 31.048 108.48 30.904C108.3 30.76 107.97 30.628 107.49 30.508L106.05 30.184C105.234 30.004 104.628 29.71 104.232 29.302C103.836 28.894 103.638 28.366 103.638 27.718C103.638 27.178 103.788 26.704 104.088 26.296C104.4 25.876 104.826 25.552 105.366 25.324C105.918 25.096 106.554 24.982 107.274 24.982C107.898 24.982 108.498 25.078 109.074 25.27C109.662 25.462 110.178 25.732 110.622 26.08L109.992 27.61C109.08 26.95 108.168 26.62 107.256 26.62C106.764 26.62 106.38 26.71 106.104 26.89C105.828 27.07 105.69 27.322 105.69 27.646C105.69 27.886 105.774 28.084 105.942 28.24C106.122 28.396 106.404 28.516 106.788 28.6L108.282 28.942C109.158 29.134 109.8 29.44 110.208 29.86C110.616 30.268 110.82 30.808 110.82 31.48C110.82 32.296 110.49 32.944 109.83 33.424C109.17 33.904 108.276 34.144 107.148 34.144ZM115.507 25.198H117.829V26.89H115.507V34H113.257V26.89H111.565V25.198H113.257C113.257 23.938 113.581 22.99 114.229 22.354C114.889 21.718 115.909 21.364 117.289 21.292L118.171 21.238L118.315 22.912L117.469 22.948C116.761 22.984 116.257 23.146 115.957 23.434C115.657 23.71 115.507 24.16 115.507 24.784V25.198ZM126.73 30.004H120.736C120.808 30.82 121.054 31.426 121.474 31.822C121.894 32.218 122.494 32.416 123.274 32.416C124.246 32.416 125.134 32.104 125.938 31.48L126.586 33.028C126.178 33.364 125.662 33.634 125.038 33.838C124.426 34.042 123.808 34.144 123.184 34.144C121.744 34.144 120.604 33.736 119.764 32.92C118.936 32.104 118.522 30.988 118.522 29.572C118.522 28.672 118.702 27.874 119.062 27.178C119.422 26.482 119.926 25.942 120.574 25.558C121.234 25.174 121.978 24.982 122.806 24.982C124.018 24.982 124.972 25.372 125.668 26.152C126.376 26.932 126.73 28.006 126.73 29.374V30.004ZM122.86 26.566C122.26 26.566 121.774 26.758 121.402 27.142C121.042 27.526 120.82 28.078 120.736 28.798H124.804C124.78 28.066 124.6 27.514 124.264 27.142C123.928 26.758 123.46 26.566 122.86 26.566ZM134.366 26.854L133.052 26.98C131.564 27.136 130.82 27.892 130.82 29.248V34H128.57V25.198H130.712V26.746C131.168 25.69 132.11 25.114 133.538 25.018L134.222 24.964L134.366 26.854Z" fill="#514F5B"/>
</svg>
