<svg width="54" height="21" viewBox="0 0 54 21" fill="none" xmlns="http://www.w3.org/2000/svg">
<path d="M17.6377 16.1982C20.1465 16.1982 21.6504 14.2432 21.6504 10.9551C21.6504 7.29785 19.6885 5.93066 17.665 5.93066C15.5322 5.93066 13.9805 7.37305 13.9805 9.38281C13.9805 11.29 15.4092 12.6162 17.2549 12.6162C18.5332 12.6162 19.5449 11.9736 19.9277 11.0166H19.9551C19.9551 13.3135 19.2031 14.7695 17.6514 14.7695C16.749 14.7695 16.0859 14.3594 15.8398 13.5801H14.0898C14.3633 15.1387 15.792 16.1982 17.6377 16.1982ZM17.665 11.249C16.5439 11.249 15.71 10.4424 15.71 9.31445C15.71 8.23438 16.585 7.37988 17.6855 7.37988C18.7998 7.37988 19.6611 8.24121 19.6611 9.34863C19.6611 10.4492 18.8066 11.249 17.665 11.249Z" fill="black"/>
<path d="M23.845 14.5986C24.3919 14.5986 24.8225 14.168 24.8225 13.6143C24.8225 13.0674 24.3919 12.6299 23.845 12.6299C23.2913 12.6299 22.8606 13.0674 22.8606 13.6143C22.8606 14.168 23.2913 14.5986 23.845 14.5986ZM23.845 9.49219C24.3919 9.49219 24.8225 9.05469 24.8225 8.50781C24.8225 7.96094 24.3919 7.52344 23.845 7.52344C23.2913 7.52344 22.8606 7.96094 22.8606 8.50781C22.8606 9.05469 23.2913 9.49219 23.845 9.49219Z" fill="black"/>
<path d="M30.8795 16H32.5611V14.1064H33.9009V12.6572H32.5611V6.13574H30.0523C27.9127 9.24609 26.8121 10.9961 25.9576 12.6025V14.1064H30.8795V16ZM27.5435 12.6504C28.3296 11.2148 29.2867 9.73145 30.8795 7.44824H30.9068V12.6982H27.5435V12.6504Z" fill="black"/>
<path d="M37.2372 16H38.9666V6.13574H37.2235L34.6463 7.94727V9.56738L37.1961 7.81738H37.2372V16Z" fill="black"/>
</svg>
